<mxfile host="app.diagrams.net" modified="2023-07-02T17:42:02.447Z" agent="Mozilla/5.0 (Windows NT 10.0; Win64; x64) AppleWebKit/537.36 (KHTML, like Gecko) Chrome/114.0.0.0 Safari/537.36" etag="IgyuNKZttau2mMuMUDt7" version="21.3.0" type="device">
  <diagram name="페이지-1" id="OoDab8M-EflBNTvMsxbc">
    <mxGraphModel dx="2840" dy="1649" grid="1" gridSize="10" guides="1" tooltips="1" connect="1" arrows="1" fold="1" page="1" pageScale="1" pageWidth="1920" pageHeight="1200" math="0" shadow="0">
      <root>
        <mxCell id="0" />
        <mxCell id="1" parent="0" />
        <mxCell id="uYLrp8LAjMFdkNRyyOgL-124" value="" style="rounded=0;whiteSpace=wrap;html=1;fontSize=16;fontStyle=1" vertex="1" parent="1">
          <mxGeometry x="380" y="20" width="1550" height="1390" as="geometry" />
        </mxCell>
        <mxCell id="uYLrp8LAjMFdkNRyyOgL-43" value="" style="rounded=0;whiteSpace=wrap;html=1;fontSize=16;fontStyle=1" vertex="1" parent="1">
          <mxGeometry x="1040" y="244" width="270" height="330" as="geometry" />
        </mxCell>
        <mxCell id="uYLrp8LAjMFdkNRyyOgL-33" value="" style="rounded=0;whiteSpace=wrap;html=1;fontSize=16;fontStyle=1" vertex="1" parent="1">
          <mxGeometry x="810" y="264" width="210" height="186" as="geometry" />
        </mxCell>
        <mxCell id="uYLrp8LAjMFdkNRyyOgL-18" value="" style="rounded=0;whiteSpace=wrap;html=1;fontSize=16;fontStyle=1" vertex="1" parent="1">
          <mxGeometry x="534" y="264" width="266" height="230" as="geometry" />
        </mxCell>
        <mxCell id="uYLrp8LAjMFdkNRyyOgL-4" value="" style="edgeStyle=orthogonalEdgeStyle;rounded=0;orthogonalLoop=1;jettySize=auto;html=1;fontSize=16;fontStyle=1" edge="1" parent="1" source="uYLrp8LAjMFdkNRyyOgL-2" target="uYLrp8LAjMFdkNRyyOgL-3">
          <mxGeometry relative="1" as="geometry" />
        </mxCell>
        <mxCell id="uYLrp8LAjMFdkNRyyOgL-2" value="&lt;font style=&quot;font-size: 22px;&quot;&gt;&lt;span style=&quot;font-size: 22px;&quot;&gt;Processing&lt;br style=&quot;font-size: 22px;&quot;&gt;Start&lt;/span&gt;&lt;/font&gt;" style="strokeWidth=2;html=1;shape=mxgraph.flowchart.start_1;whiteSpace=wrap;fontSize=22;fontStyle=1" vertex="1" parent="1">
          <mxGeometry x="410" y="60" width="180" height="70" as="geometry" />
        </mxCell>
        <mxCell id="uYLrp8LAjMFdkNRyyOgL-16" style="edgeStyle=orthogonalEdgeStyle;rounded=0;orthogonalLoop=1;jettySize=auto;html=1;entryX=0;entryY=0.5;entryDx=0;entryDy=0;fontSize=16;fontStyle=1" edge="1" parent="1" source="uYLrp8LAjMFdkNRyyOgL-3" target="uYLrp8LAjMFdkNRyyOgL-14">
          <mxGeometry relative="1" as="geometry">
            <Array as="points">
              <mxPoint x="500" y="270" />
              <mxPoint x="500" y="444" />
            </Array>
          </mxGeometry>
        </mxCell>
        <mxCell id="uYLrp8LAjMFdkNRyyOgL-3" value="&lt;font style=&quot;font-size: 16px;&quot;&gt;Motor mod, Value&lt;br style=&quot;font-size: 16px;&quot;&gt;Send using UART&lt;/font&gt;" style="whiteSpace=wrap;html=1;strokeWidth=2;fontSize=16;fontStyle=1" vertex="1" parent="1">
          <mxGeometry x="410" y="180" width="180" height="60" as="geometry" />
        </mxCell>
        <mxCell id="uYLrp8LAjMFdkNRyyOgL-5" value="" style="edgeStyle=orthogonalEdgeStyle;rounded=0;orthogonalLoop=1;jettySize=auto;html=1;fontSize=16;fontStyle=1" edge="1" parent="1" source="uYLrp8LAjMFdkNRyyOgL-6" target="uYLrp8LAjMFdkNRyyOgL-7">
          <mxGeometry relative="1" as="geometry" />
        </mxCell>
        <mxCell id="uYLrp8LAjMFdkNRyyOgL-6" value="&lt;font style=&quot;font-size: 22px;&quot;&gt;&lt;span style=&quot;font-size: 22px;&quot;&gt;Arduino&lt;br style=&quot;font-size: 22px;&quot;&gt;Start&lt;/span&gt;&lt;/font&gt;" style="strokeWidth=2;html=1;shape=mxgraph.flowchart.start_1;whiteSpace=wrap;fontSize=22;fontStyle=1" vertex="1" parent="1">
          <mxGeometry x="650" y="60" width="180" height="70" as="geometry" />
        </mxCell>
        <mxCell id="uYLrp8LAjMFdkNRyyOgL-21" style="edgeStyle=orthogonalEdgeStyle;rounded=0;orthogonalLoop=1;jettySize=auto;html=1;entryX=0.5;entryY=0;entryDx=0;entryDy=0;fontSize=16;fontStyle=1" edge="1" parent="1" source="uYLrp8LAjMFdkNRyyOgL-7" target="uYLrp8LAjMFdkNRyyOgL-10">
          <mxGeometry relative="1" as="geometry">
            <Array as="points">
              <mxPoint x="664" y="210" />
            </Array>
          </mxGeometry>
        </mxCell>
        <mxCell id="uYLrp8LAjMFdkNRyyOgL-29" value="" style="edgeStyle=orthogonalEdgeStyle;rounded=0;orthogonalLoop=1;jettySize=auto;html=1;fontSize=16;fontStyle=1" edge="1" parent="1" source="uYLrp8LAjMFdkNRyyOgL-7" target="uYLrp8LAjMFdkNRyyOgL-28">
          <mxGeometry relative="1" as="geometry" />
        </mxCell>
        <mxCell id="uYLrp8LAjMFdkNRyyOgL-7" value="&lt;font style=&quot;font-size: 16px;&quot;&gt;Initialize&lt;br style=&quot;font-size: 16px;&quot;&gt;&amp;nbsp;I2C, UART&lt;/font&gt;" style="whiteSpace=wrap;html=1;strokeWidth=2;fontSize=16;fontStyle=1" vertex="1" parent="1">
          <mxGeometry x="680" y="180" width="120" height="60" as="geometry" />
        </mxCell>
        <mxCell id="uYLrp8LAjMFdkNRyyOgL-15" value="" style="edgeStyle=orthogonalEdgeStyle;rounded=0;orthogonalLoop=1;jettySize=auto;html=1;fontSize=16;fontStyle=1" edge="1" parent="1" source="uYLrp8LAjMFdkNRyyOgL-10" target="uYLrp8LAjMFdkNRyyOgL-14">
          <mxGeometry relative="1" as="geometry" />
        </mxCell>
        <mxCell id="uYLrp8LAjMFdkNRyyOgL-10" value="&lt;font style=&quot;font-size: 16px;&quot;&gt;Serial.available()&lt;/font&gt;" style="rhombus;whiteSpace=wrap;html=1;strokeWidth=2;fontSize=16;fontStyle=1" vertex="1" parent="1">
          <mxGeometry x="544" y="294" width="240" height="80" as="geometry" />
        </mxCell>
        <mxCell id="uYLrp8LAjMFdkNRyyOgL-12" value="&lt;span style=&quot;font-size: 16px;&quot;&gt;YES&lt;/span&gt;" style="text;html=1;strokeColor=none;fillColor=none;align=center;verticalAlign=middle;whiteSpace=wrap;rounded=0;fontSize=16;fontStyle=1" vertex="1" parent="1">
          <mxGeometry x="544" y="344" width="40" height="30" as="geometry" />
        </mxCell>
        <mxCell id="uYLrp8LAjMFdkNRyyOgL-13" value="&lt;span style=&quot;font-size: 16px;&quot;&gt;NO&lt;/span&gt;" style="text;html=1;strokeColor=none;fillColor=none;align=center;verticalAlign=middle;whiteSpace=wrap;rounded=0;fontSize=16;fontStyle=1" vertex="1" parent="1">
          <mxGeometry x="744" y="294" width="40" height="30" as="geometry" />
        </mxCell>
        <mxCell id="uYLrp8LAjMFdkNRyyOgL-14" value="&lt;font style=&quot;font-size: 16px;&quot;&gt;Receive Input Data&lt;/font&gt;" style="shape=parallelogram;perimeter=parallelogramPerimeter;whiteSpace=wrap;html=1;fixedSize=1;strokeWidth=2;fontSize=16;fontStyle=1" vertex="1" parent="1">
          <mxGeometry x="544" y="414" width="240" height="60" as="geometry" />
        </mxCell>
        <mxCell id="uYLrp8LAjMFdkNRyyOgL-20" value="Loop" style="text;html=1;strokeColor=none;fillColor=none;align=center;verticalAlign=middle;whiteSpace=wrap;rounded=0;fontSize=16;fontStyle=1" vertex="1" parent="1">
          <mxGeometry x="520" y="240" width="60" height="30" as="geometry" />
        </mxCell>
        <mxCell id="uYLrp8LAjMFdkNRyyOgL-31" value="" style="edgeStyle=orthogonalEdgeStyle;rounded=0;orthogonalLoop=1;jettySize=auto;html=1;fontSize=16;fontStyle=1" edge="1" parent="1" source="uYLrp8LAjMFdkNRyyOgL-28" target="uYLrp8LAjMFdkNRyyOgL-30">
          <mxGeometry relative="1" as="geometry" />
        </mxCell>
        <mxCell id="uYLrp8LAjMFdkNRyyOgL-28" value="&lt;font style=&quot;font-size: 16px;&quot;&gt;MODBUS-CRC16&lt;/font&gt;" style="whiteSpace=wrap;html=1;strokeWidth=2;fontSize=16;fontStyle=1" vertex="1" parent="1">
          <mxGeometry x="820" y="284" width="170" height="66" as="geometry" />
        </mxCell>
        <mxCell id="uYLrp8LAjMFdkNRyyOgL-30" value="&lt;font style=&quot;font-size: 16px;&quot;&gt;Send Input Data&lt;br style=&quot;border-color: var(--border-color); font-size: 16px;&quot;&gt;using I2C&lt;/font&gt;" style="whiteSpace=wrap;html=1;strokeWidth=2;fontSize=16;fontStyle=1" vertex="1" parent="1">
          <mxGeometry x="820" y="374" width="190" height="60" as="geometry" />
        </mxCell>
        <mxCell id="uYLrp8LAjMFdkNRyyOgL-34" value="SendToMaster" style="text;html=1;strokeColor=none;fillColor=none;align=center;verticalAlign=middle;whiteSpace=wrap;rounded=0;fontSize=16;fontStyle=1" vertex="1" parent="1">
          <mxGeometry x="834" y="240" width="60" height="30" as="geometry" />
        </mxCell>
        <mxCell id="uYLrp8LAjMFdkNRyyOgL-35" value="&lt;font style=&quot;font-size: 16px;&quot;&gt;MODBUS_CRC16()&lt;/font&gt;" style="shape=process;whiteSpace=wrap;html=1;backgroundOutline=1;strokeWidth=2;fontSize=16;fontStyle=1" vertex="1" parent="1">
          <mxGeometry x="819" y="283" width="191" height="67" as="geometry" />
        </mxCell>
        <mxCell id="uYLrp8LAjMFdkNRyyOgL-38" value="" style="edgeStyle=orthogonalEdgeStyle;rounded=0;orthogonalLoop=1;jettySize=auto;html=1;fontSize=16;fontStyle=1" edge="1" parent="1" source="uYLrp8LAjMFdkNRyyOgL-36" target="uYLrp8LAjMFdkNRyyOgL-37">
          <mxGeometry relative="1" as="geometry" />
        </mxCell>
        <mxCell id="uYLrp8LAjMFdkNRyyOgL-36" value="&lt;font style=&quot;font-size: 22px;&quot;&gt;&lt;span style=&quot;font-size: 22px;&quot;&gt;Aurix&lt;br style=&quot;font-size: 22px;&quot;&gt;Start&lt;/span&gt;&lt;/font&gt;" style="strokeWidth=2;html=1;shape=mxgraph.flowchart.start_1;whiteSpace=wrap;fontSize=22;fontStyle=1" vertex="1" parent="1">
          <mxGeometry x="1070" y="44" width="180" height="66" as="geometry" />
        </mxCell>
        <mxCell id="uYLrp8LAjMFdkNRyyOgL-42" value="" style="edgeStyle=orthogonalEdgeStyle;rounded=0;orthogonalLoop=1;jettySize=auto;html=1;fontSize=16;fontStyle=1" edge="1" parent="1" source="uYLrp8LAjMFdkNRyyOgL-37" target="uYLrp8LAjMFdkNRyyOgL-41">
          <mxGeometry relative="1" as="geometry" />
        </mxCell>
        <mxCell id="uYLrp8LAjMFdkNRyyOgL-37" value="&lt;font style=&quot;font-size: 16px;&quot;&gt;Initialize&lt;br style=&quot;border-color: var(--border-color); font-size: 16px;&quot;&gt;&amp;nbsp;I2C, CAN, Motor&lt;/font&gt;" style="whiteSpace=wrap;html=1;strokeWidth=2;fontSize=16;fontStyle=1" vertex="1" parent="1">
          <mxGeometry x="1070" y="154" width="180" height="60" as="geometry" />
        </mxCell>
        <mxCell id="uYLrp8LAjMFdkNRyyOgL-47" value="" style="edgeStyle=orthogonalEdgeStyle;rounded=0;orthogonalLoop=1;jettySize=auto;html=1;fontSize=16;fontStyle=1" edge="1" parent="1" source="uYLrp8LAjMFdkNRyyOgL-41" target="uYLrp8LAjMFdkNRyyOgL-46">
          <mxGeometry relative="1" as="geometry" />
        </mxCell>
        <mxCell id="uYLrp8LAjMFdkNRyyOgL-41" value="&lt;font style=&quot;font-size: 16px;&quot;&gt;Read_I2C_Data()&lt;/font&gt;" style="shape=process;whiteSpace=wrap;html=1;backgroundOutline=1;strokeWidth=2;fontSize=16;fontStyle=1" vertex="1" parent="1">
          <mxGeometry x="1050" y="257" width="220" height="60" as="geometry" />
        </mxCell>
        <mxCell id="uYLrp8LAjMFdkNRyyOgL-45" value="Loop" style="text;html=1;strokeColor=none;fillColor=none;align=center;verticalAlign=middle;whiteSpace=wrap;rounded=0;fontSize=16;fontStyle=1" vertex="1" parent="1">
          <mxGeometry x="1028" y="220" width="60" height="30" as="geometry" />
        </mxCell>
        <mxCell id="uYLrp8LAjMFdkNRyyOgL-53" value="" style="edgeStyle=orthogonalEdgeStyle;rounded=0;orthogonalLoop=1;jettySize=auto;html=1;fontSize=16;fontStyle=1" edge="1" parent="1" source="uYLrp8LAjMFdkNRyyOgL-46" target="uYLrp8LAjMFdkNRyyOgL-52">
          <mxGeometry relative="1" as="geometry" />
        </mxCell>
        <mxCell id="uYLrp8LAjMFdkNRyyOgL-62" style="edgeStyle=orthogonalEdgeStyle;rounded=0;orthogonalLoop=1;jettySize=auto;html=1;fontSize=16;fontStyle=1" edge="1" parent="1" source="uYLrp8LAjMFdkNRyyOgL-46">
          <mxGeometry relative="1" as="geometry">
            <mxPoint x="1211" y="554" as="targetPoint" />
            <Array as="points">
              <mxPoint x="1280" y="384" />
              <mxPoint x="1280" y="534" />
              <mxPoint x="1211" y="534" />
              <mxPoint x="1211" y="554" />
            </Array>
          </mxGeometry>
        </mxCell>
        <mxCell id="uYLrp8LAjMFdkNRyyOgL-46" value="&lt;font style=&quot;font-size: 16px;&quot;&gt;Data Read Success==1&lt;/font&gt;" style="rhombus;whiteSpace=wrap;html=1;strokeWidth=2;fontSize=16;fontStyle=1" vertex="1" parent="1">
          <mxGeometry x="1050" y="344" width="220" height="80" as="geometry" />
        </mxCell>
        <mxCell id="uYLrp8LAjMFdkNRyyOgL-48" value="&lt;span style=&quot;font-size: 16px;&quot;&gt;YES&lt;/span&gt;" style="text;html=1;strokeColor=none;fillColor=none;align=center;verticalAlign=middle;whiteSpace=wrap;rounded=0;fontSize=16;fontStyle=1" vertex="1" parent="1">
          <mxGeometry x="1040" y="394" width="40" height="30" as="geometry" />
        </mxCell>
        <mxCell id="uYLrp8LAjMFdkNRyyOgL-49" value="&lt;span style=&quot;font-size: 16px;&quot;&gt;NO&lt;/span&gt;" style="text;html=1;strokeColor=none;fillColor=none;align=center;verticalAlign=middle;whiteSpace=wrap;rounded=0;fontSize=16;fontStyle=1" vertex="1" parent="1">
          <mxGeometry x="1240" y="344" width="40" height="30" as="geometry" />
        </mxCell>
        <mxCell id="uYLrp8LAjMFdkNRyyOgL-61" style="edgeStyle=orthogonalEdgeStyle;rounded=0;orthogonalLoop=1;jettySize=auto;html=1;fontSize=16;fontStyle=1" edge="1" parent="1" source="uYLrp8LAjMFdkNRyyOgL-52">
          <mxGeometry relative="1" as="geometry">
            <mxPoint x="1160" y="554" as="targetPoint" />
          </mxGeometry>
        </mxCell>
        <mxCell id="uYLrp8LAjMFdkNRyyOgL-52" value="&lt;font style=&quot;font-size: 16px;&quot;&gt;Motor_Control()&lt;/font&gt;" style="shape=process;whiteSpace=wrap;html=1;backgroundOutline=1;strokeWidth=2;fontSize=16;fontStyle=1" vertex="1" parent="1">
          <mxGeometry x="1050" y="444" width="220" height="60" as="geometry" />
        </mxCell>
        <mxCell id="uYLrp8LAjMFdkNRyyOgL-55" value="" style="endArrow=none;html=1;rounded=0;fontSize=16;fontStyle=1" edge="1" parent="1">
          <mxGeometry width="50" height="50" relative="1" as="geometry">
            <mxPoint x="1053" y="554" as="sourcePoint" />
            <mxPoint x="1273" y="554" as="targetPoint" />
          </mxGeometry>
        </mxCell>
        <mxCell id="uYLrp8LAjMFdkNRyyOgL-66" value="" style="edgeStyle=orthogonalEdgeStyle;rounded=0;orthogonalLoop=1;jettySize=auto;html=1;fontSize=16;fontStyle=1" edge="1" parent="1" source="uYLrp8LAjMFdkNRyyOgL-63" target="uYLrp8LAjMFdkNRyyOgL-65">
          <mxGeometry relative="1" as="geometry" />
        </mxCell>
        <mxCell id="uYLrp8LAjMFdkNRyyOgL-63" value="&lt;font style=&quot;font-size: 16px;&quot;&gt;Read_I2C_Data()&lt;/font&gt;" style="shape=process;whiteSpace=wrap;html=1;backgroundOutline=1;strokeWidth=2;fontSize=16;fontStyle=1" vertex="1" parent="1">
          <mxGeometry x="1510" y="270" width="220" height="60" as="geometry" />
        </mxCell>
        <mxCell id="uYLrp8LAjMFdkNRyyOgL-68" value="" style="edgeStyle=orthogonalEdgeStyle;rounded=0;orthogonalLoop=1;jettySize=auto;html=1;fontSize=16;fontStyle=1" edge="1" parent="1" source="uYLrp8LAjMFdkNRyyOgL-65" target="uYLrp8LAjMFdkNRyyOgL-67">
          <mxGeometry relative="1" as="geometry" />
        </mxCell>
        <mxCell id="uYLrp8LAjMFdkNRyyOgL-65" value="&lt;font style=&quot;font-size: 16px;&quot;&gt;Request I2C Data&lt;/font&gt;" style="whiteSpace=wrap;html=1;strokeWidth=2;fontSize=16;fontStyle=1" vertex="1" parent="1">
          <mxGeometry x="1510" y="368" width="220" height="60" as="geometry" />
        </mxCell>
        <mxCell id="uYLrp8LAjMFdkNRyyOgL-67" value="&lt;font style=&quot;font-size: 16px;&quot;&gt;Check MODBUS-CRC16&lt;/font&gt;" style="whiteSpace=wrap;html=1;strokeWidth=2;fontSize=16;fontStyle=1" vertex="1" parent="1">
          <mxGeometry x="1510" y="461" width="220" height="60" as="geometry" />
        </mxCell>
        <mxCell id="uYLrp8LAjMFdkNRyyOgL-74" value="" style="edgeStyle=orthogonalEdgeStyle;rounded=0;orthogonalLoop=1;jettySize=auto;html=1;fontSize=16;fontStyle=1" edge="1" parent="1" source="uYLrp8LAjMFdkNRyyOgL-69" target="uYLrp8LAjMFdkNRyyOgL-73">
          <mxGeometry relative="1" as="geometry" />
        </mxCell>
        <mxCell id="uYLrp8LAjMFdkNRyyOgL-69" value="&lt;font style=&quot;font-size: 16px;&quot;&gt;Motor_Control()&lt;/font&gt;" style="shape=process;whiteSpace=wrap;html=1;backgroundOutline=1;strokeWidth=2;fontSize=16;fontStyle=1" vertex="1" parent="1">
          <mxGeometry x="410" y="610" width="220" height="60" as="geometry" />
        </mxCell>
        <mxCell id="uYLrp8LAjMFdkNRyyOgL-70" value="" style="endArrow=none;html=1;rounded=0;fontSize=16;fontStyle=1" edge="1" parent="1">
          <mxGeometry width="50" height="50" relative="1" as="geometry">
            <mxPoint x="1510" y="559.5" as="sourcePoint" />
            <mxPoint x="1730" y="559.5" as="targetPoint" />
          </mxGeometry>
        </mxCell>
        <mxCell id="uYLrp8LAjMFdkNRyyOgL-72" style="edgeStyle=orthogonalEdgeStyle;rounded=0;orthogonalLoop=1;jettySize=auto;html=1;fontSize=16;fontStyle=1" edge="1" parent="1" source="uYLrp8LAjMFdkNRyyOgL-67">
          <mxGeometry relative="1" as="geometry">
            <mxPoint x="1620" y="559.5" as="targetPoint" />
            <mxPoint x="1620" y="521.5" as="sourcePoint" />
          </mxGeometry>
        </mxCell>
        <mxCell id="uYLrp8LAjMFdkNRyyOgL-76" value="" style="edgeStyle=orthogonalEdgeStyle;rounded=0;orthogonalLoop=1;jettySize=auto;html=1;fontSize=16;fontStyle=1" edge="1" parent="1" source="uYLrp8LAjMFdkNRyyOgL-73" target="uYLrp8LAjMFdkNRyyOgL-75">
          <mxGeometry relative="1" as="geometry" />
        </mxCell>
        <mxCell id="uYLrp8LAjMFdkNRyyOgL-94" value="" style="edgeStyle=orthogonalEdgeStyle;rounded=0;orthogonalLoop=1;jettySize=auto;html=1;fontSize=16;fontStyle=1" edge="1" parent="1" source="uYLrp8LAjMFdkNRyyOgL-73" target="uYLrp8LAjMFdkNRyyOgL-93">
          <mxGeometry relative="1" as="geometry" />
        </mxCell>
        <mxCell id="uYLrp8LAjMFdkNRyyOgL-73" value="&lt;font style=&quot;font-size: 16px;&quot;&gt;Motor.mod == 1&lt;/font&gt;" style="rhombus;whiteSpace=wrap;html=1;strokeWidth=2;fontSize=16;fontStyle=1" vertex="1" parent="1">
          <mxGeometry x="410" y="700" width="220" height="80" as="geometry" />
        </mxCell>
        <mxCell id="uYLrp8LAjMFdkNRyyOgL-78" value="" style="edgeStyle=orthogonalEdgeStyle;rounded=0;orthogonalLoop=1;jettySize=auto;html=1;fontSize=16;fontStyle=1" edge="1" parent="1" source="uYLrp8LAjMFdkNRyyOgL-75" target="uYLrp8LAjMFdkNRyyOgL-77">
          <mxGeometry relative="1" as="geometry" />
        </mxCell>
        <mxCell id="uYLrp8LAjMFdkNRyyOgL-110" value="" style="edgeStyle=orthogonalEdgeStyle;rounded=0;orthogonalLoop=1;jettySize=auto;html=1;fontSize=16;fontStyle=1" edge="1" parent="1" source="uYLrp8LAjMFdkNRyyOgL-75" target="uYLrp8LAjMFdkNRyyOgL-99">
          <mxGeometry relative="1" as="geometry" />
        </mxCell>
        <mxCell id="uYLrp8LAjMFdkNRyyOgL-75" value="&lt;font style=&quot;font-size: 16px;&quot;&gt;Motor.mod == 2&lt;/font&gt;" style="rhombus;whiteSpace=wrap;html=1;strokeWidth=2;fontSize=16;fontStyle=1" vertex="1" parent="1">
          <mxGeometry x="710" y="700" width="220" height="80" as="geometry" />
        </mxCell>
        <mxCell id="uYLrp8LAjMFdkNRyyOgL-80" value="" style="edgeStyle=orthogonalEdgeStyle;rounded=0;orthogonalLoop=1;jettySize=auto;html=1;fontSize=16;fontStyle=1" edge="1" parent="1" source="uYLrp8LAjMFdkNRyyOgL-77" target="uYLrp8LAjMFdkNRyyOgL-79">
          <mxGeometry relative="1" as="geometry" />
        </mxCell>
        <mxCell id="uYLrp8LAjMFdkNRyyOgL-131" value="" style="edgeStyle=orthogonalEdgeStyle;rounded=0;orthogonalLoop=1;jettySize=auto;html=1;fontSize=16;fontStyle=1" edge="1" parent="1" source="uYLrp8LAjMFdkNRyyOgL-77" target="uYLrp8LAjMFdkNRyyOgL-130">
          <mxGeometry relative="1" as="geometry" />
        </mxCell>
        <mxCell id="uYLrp8LAjMFdkNRyyOgL-77" value="&lt;font style=&quot;font-size: 16px;&quot;&gt;Motor.mod == 3&lt;/font&gt;" style="rhombus;whiteSpace=wrap;html=1;strokeWidth=2;fontSize=16;fontStyle=1" vertex="1" parent="1">
          <mxGeometry x="1010" y="700" width="220" height="80" as="geometry" />
        </mxCell>
        <mxCell id="uYLrp8LAjMFdkNRyyOgL-82" value="" style="edgeStyle=orthogonalEdgeStyle;rounded=0;orthogonalLoop=1;jettySize=auto;html=1;fontSize=16;fontStyle=1" edge="1" parent="1" source="uYLrp8LAjMFdkNRyyOgL-79" target="uYLrp8LAjMFdkNRyyOgL-81">
          <mxGeometry relative="1" as="geometry" />
        </mxCell>
        <mxCell id="uYLrp8LAjMFdkNRyyOgL-151" value="" style="edgeStyle=orthogonalEdgeStyle;rounded=0;orthogonalLoop=1;jettySize=auto;html=1;fontSize=16;fontStyle=1" edge="1" parent="1" source="uYLrp8LAjMFdkNRyyOgL-79" target="uYLrp8LAjMFdkNRyyOgL-146">
          <mxGeometry relative="1" as="geometry" />
        </mxCell>
        <mxCell id="uYLrp8LAjMFdkNRyyOgL-79" value="&lt;font style=&quot;font-size: 16px;&quot;&gt;Motor.mod == 4&lt;/font&gt;" style="rhombus;whiteSpace=wrap;html=1;strokeWidth=2;fontSize=16;fontStyle=1" vertex="1" parent="1">
          <mxGeometry x="1290" y="700" width="220" height="80" as="geometry" />
        </mxCell>
        <mxCell id="uYLrp8LAjMFdkNRyyOgL-113" value="" style="edgeStyle=orthogonalEdgeStyle;rounded=0;orthogonalLoop=1;jettySize=auto;html=1;fontSize=16;fontStyle=1" edge="1" parent="1" source="uYLrp8LAjMFdkNRyyOgL-81" target="uYLrp8LAjMFdkNRyyOgL-108">
          <mxGeometry relative="1" as="geometry" />
        </mxCell>
        <mxCell id="uYLrp8LAjMFdkNRyyOgL-166" style="edgeStyle=orthogonalEdgeStyle;rounded=0;orthogonalLoop=1;jettySize=auto;html=1;fontSize=16;fontStyle=1" edge="1" parent="1" source="uYLrp8LAjMFdkNRyyOgL-81">
          <mxGeometry relative="1" as="geometry">
            <mxPoint x="1850" y="1100" as="targetPoint" />
          </mxGeometry>
        </mxCell>
        <mxCell id="uYLrp8LAjMFdkNRyyOgL-81" value="&lt;font style=&quot;font-size: 16px;&quot;&gt;Motor.mod == 5&lt;/font&gt;" style="rhombus;whiteSpace=wrap;html=1;strokeWidth=2;fontSize=16;fontStyle=1" vertex="1" parent="1">
          <mxGeometry x="1570" y="699" width="220" height="80" as="geometry" />
        </mxCell>
        <mxCell id="uYLrp8LAjMFdkNRyyOgL-83" value="&lt;span style=&quot;font-size: 16px;&quot;&gt;YES&lt;/span&gt;" style="text;html=1;strokeColor=none;fillColor=none;align=center;verticalAlign=middle;whiteSpace=wrap;rounded=0;fontSize=16;fontStyle=1" vertex="1" parent="1">
          <mxGeometry x="400" y="750" width="40" height="30" as="geometry" />
        </mxCell>
        <mxCell id="uYLrp8LAjMFdkNRyyOgL-84" value="&lt;span style=&quot;font-size: 16px;&quot;&gt;NO&lt;/span&gt;" style="text;html=1;strokeColor=none;fillColor=none;align=center;verticalAlign=middle;whiteSpace=wrap;rounded=0;fontSize=16;fontStyle=1" vertex="1" parent="1">
          <mxGeometry x="600" y="700" width="40" height="30" as="geometry" />
        </mxCell>
        <mxCell id="uYLrp8LAjMFdkNRyyOgL-85" value="&lt;span style=&quot;font-size: 16px;&quot;&gt;YES&lt;/span&gt;" style="text;html=1;strokeColor=none;fillColor=none;align=center;verticalAlign=middle;whiteSpace=wrap;rounded=0;fontSize=16;fontStyle=1" vertex="1" parent="1">
          <mxGeometry x="700" y="750" width="40" height="30" as="geometry" />
        </mxCell>
        <mxCell id="uYLrp8LAjMFdkNRyyOgL-86" value="&lt;span style=&quot;font-size: 16px;&quot;&gt;NO&lt;/span&gt;" style="text;html=1;strokeColor=none;fillColor=none;align=center;verticalAlign=middle;whiteSpace=wrap;rounded=0;fontSize=16;fontStyle=1" vertex="1" parent="1">
          <mxGeometry x="900" y="700" width="40" height="30" as="geometry" />
        </mxCell>
        <mxCell id="uYLrp8LAjMFdkNRyyOgL-87" value="&lt;span style=&quot;font-size: 16px;&quot;&gt;YES&lt;/span&gt;" style="text;html=1;strokeColor=none;fillColor=none;align=center;verticalAlign=middle;whiteSpace=wrap;rounded=0;fontSize=16;fontStyle=1" vertex="1" parent="1">
          <mxGeometry x="1000" y="750" width="40" height="30" as="geometry" />
        </mxCell>
        <mxCell id="uYLrp8LAjMFdkNRyyOgL-88" value="&lt;span style=&quot;font-size: 16px;&quot;&gt;NO&lt;/span&gt;" style="text;html=1;strokeColor=none;fillColor=none;align=center;verticalAlign=middle;whiteSpace=wrap;rounded=0;fontSize=16;fontStyle=1" vertex="1" parent="1">
          <mxGeometry x="1200" y="700" width="40" height="30" as="geometry" />
        </mxCell>
        <mxCell id="uYLrp8LAjMFdkNRyyOgL-89" value="&lt;span style=&quot;font-size: 16px;&quot;&gt;YES&lt;/span&gt;" style="text;html=1;strokeColor=none;fillColor=none;align=center;verticalAlign=middle;whiteSpace=wrap;rounded=0;fontSize=16;fontStyle=1" vertex="1" parent="1">
          <mxGeometry x="1280" y="750" width="40" height="30" as="geometry" />
        </mxCell>
        <mxCell id="uYLrp8LAjMFdkNRyyOgL-90" value="&lt;span style=&quot;font-size: 16px;&quot;&gt;NO&lt;/span&gt;" style="text;html=1;strokeColor=none;fillColor=none;align=center;verticalAlign=middle;whiteSpace=wrap;rounded=0;fontSize=16;fontStyle=1" vertex="1" parent="1">
          <mxGeometry x="1480" y="700" width="40" height="30" as="geometry" />
        </mxCell>
        <mxCell id="uYLrp8LAjMFdkNRyyOgL-91" value="&lt;span style=&quot;font-size: 16px;&quot;&gt;YES&lt;/span&gt;" style="text;html=1;strokeColor=none;fillColor=none;align=center;verticalAlign=middle;whiteSpace=wrap;rounded=0;fontSize=16;fontStyle=1" vertex="1" parent="1">
          <mxGeometry x="1560" y="749" width="40" height="30" as="geometry" />
        </mxCell>
        <mxCell id="uYLrp8LAjMFdkNRyyOgL-92" value="&lt;span style=&quot;font-size: 16px;&quot;&gt;NO&lt;/span&gt;" style="text;html=1;strokeColor=none;fillColor=none;align=center;verticalAlign=middle;whiteSpace=wrap;rounded=0;fontSize=16;fontStyle=1" vertex="1" parent="1">
          <mxGeometry x="1760" y="699" width="40" height="30" as="geometry" />
        </mxCell>
        <mxCell id="uYLrp8LAjMFdkNRyyOgL-97" value="" style="edgeStyle=orthogonalEdgeStyle;rounded=0;orthogonalLoop=1;jettySize=auto;html=1;fontSize=16;fontStyle=1" edge="1" parent="1" source="uYLrp8LAjMFdkNRyyOgL-93" target="uYLrp8LAjMFdkNRyyOgL-96">
          <mxGeometry relative="1" as="geometry" />
        </mxCell>
        <mxCell id="uYLrp8LAjMFdkNRyyOgL-93" value="&lt;font style=&quot;font-size: 16px;&quot;&gt;Mod_velocity()&lt;/font&gt;" style="shape=process;whiteSpace=wrap;html=1;backgroundOutline=1;strokeWidth=2;fontSize=16;fontStyle=1" vertex="1" parent="1">
          <mxGeometry x="415" y="810" width="210" height="60" as="geometry" />
        </mxCell>
        <mxCell id="uYLrp8LAjMFdkNRyyOgL-115" value="" style="edgeStyle=orthogonalEdgeStyle;rounded=0;orthogonalLoop=1;jettySize=auto;html=1;fontSize=16;fontStyle=1" edge="1" parent="1" source="uYLrp8LAjMFdkNRyyOgL-96" target="uYLrp8LAjMFdkNRyyOgL-114">
          <mxGeometry relative="1" as="geometry" />
        </mxCell>
        <mxCell id="uYLrp8LAjMFdkNRyyOgL-96" value="&lt;font style=&quot;font-size: 16px;&quot;&gt;CAN Message Frame.Data &lt;br style=&quot;font-size: 16px;&quot;&gt;= Motor.data.value32&lt;/font&gt;" style="whiteSpace=wrap;html=1;strokeWidth=2;fontSize=16;fontStyle=1" vertex="1" parent="1">
          <mxGeometry x="410" y="910" width="220" height="60" as="geometry" />
        </mxCell>
        <mxCell id="uYLrp8LAjMFdkNRyyOgL-98" value="" style="edgeStyle=orthogonalEdgeStyle;rounded=0;orthogonalLoop=1;jettySize=auto;html=1;fontSize=16;fontStyle=1" edge="1" parent="1" source="uYLrp8LAjMFdkNRyyOgL-99" target="uYLrp8LAjMFdkNRyyOgL-100">
          <mxGeometry relative="1" as="geometry" />
        </mxCell>
        <mxCell id="uYLrp8LAjMFdkNRyyOgL-99" value="&lt;font style=&quot;font-size: 16px;&quot;&gt;Mod_velocity()&lt;/font&gt;" style="shape=process;whiteSpace=wrap;html=1;backgroundOutline=1;strokeWidth=2;fontSize=16;fontStyle=1" vertex="1" parent="1">
          <mxGeometry x="715" y="810" width="210" height="60" as="geometry" />
        </mxCell>
        <mxCell id="uYLrp8LAjMFdkNRyyOgL-120" value="" style="edgeStyle=orthogonalEdgeStyle;rounded=0;orthogonalLoop=1;jettySize=auto;html=1;fontSize=16;fontStyle=1" edge="1" parent="1" source="uYLrp8LAjMFdkNRyyOgL-100" target="uYLrp8LAjMFdkNRyyOgL-116">
          <mxGeometry relative="1" as="geometry" />
        </mxCell>
        <mxCell id="uYLrp8LAjMFdkNRyyOgL-100" value="&lt;font style=&quot;font-size: 16px;&quot;&gt;CAN Message Frame.Data &lt;br style=&quot;font-size: 16px;&quot;&gt;= (~Motor.data.value32)&lt;/font&gt;" style="whiteSpace=wrap;html=1;strokeWidth=2;fontSize=16;fontStyle=1" vertex="1" parent="1">
          <mxGeometry x="710" y="910" width="220" height="60" as="geometry" />
        </mxCell>
        <mxCell id="uYLrp8LAjMFdkNRyyOgL-101" value="" style="edgeStyle=orthogonalEdgeStyle;rounded=0;orthogonalLoop=1;jettySize=auto;html=1;fontSize=16;fontStyle=1" edge="1" parent="1" source="uYLrp8LAjMFdkNRyyOgL-102" target="uYLrp8LAjMFdkNRyyOgL-103">
          <mxGeometry relative="1" as="geometry" />
        </mxCell>
        <mxCell id="uYLrp8LAjMFdkNRyyOgL-102" value="&lt;font style=&quot;font-size: 16px;&quot;&gt;Mod_Position()&lt;/font&gt;" style="shape=process;whiteSpace=wrap;html=1;backgroundOutline=1;strokeWidth=2;fontSize=16;fontStyle=1" vertex="1" parent="1">
          <mxGeometry x="1013" y="999" width="217" height="60" as="geometry" />
        </mxCell>
        <mxCell id="uYLrp8LAjMFdkNRyyOgL-121" value="" style="edgeStyle=orthogonalEdgeStyle;rounded=0;orthogonalLoop=1;jettySize=auto;html=1;fontSize=16;fontStyle=1" edge="1" parent="1" source="uYLrp8LAjMFdkNRyyOgL-103" target="uYLrp8LAjMFdkNRyyOgL-117">
          <mxGeometry relative="1" as="geometry" />
        </mxCell>
        <mxCell id="uYLrp8LAjMFdkNRyyOgL-103" value="&lt;font style=&quot;font-size: 16px;&quot;&gt;CAN Message Frame.Data &lt;br style=&quot;font-size: 16px;&quot;&gt;= Motor.data.value32&lt;/font&gt;" style="whiteSpace=wrap;html=1;strokeWidth=2;fontSize=16;fontStyle=1" vertex="1" parent="1">
          <mxGeometry x="1011" y="1099" width="220" height="60" as="geometry" />
        </mxCell>
        <mxCell id="uYLrp8LAjMFdkNRyyOgL-107" value="" style="edgeStyle=orthogonalEdgeStyle;rounded=0;orthogonalLoop=1;jettySize=auto;html=1;fontSize=16;fontStyle=1" edge="1" parent="1" source="uYLrp8LAjMFdkNRyyOgL-108" target="uYLrp8LAjMFdkNRyyOgL-109">
          <mxGeometry relative="1" as="geometry" />
        </mxCell>
        <mxCell id="uYLrp8LAjMFdkNRyyOgL-108" value="&lt;font style=&quot;font-size: 16px;&quot;&gt;Mod_velocity()&lt;/font&gt;" style="shape=process;whiteSpace=wrap;html=1;backgroundOutline=1;strokeWidth=2;fontSize=16;fontStyle=1" vertex="1" parent="1">
          <mxGeometry x="1575" y="809" width="210" height="60" as="geometry" />
        </mxCell>
        <mxCell id="uYLrp8LAjMFdkNRyyOgL-123" value="" style="edgeStyle=orthogonalEdgeStyle;rounded=0;orthogonalLoop=1;jettySize=auto;html=1;fontSize=16;fontStyle=1" edge="1" parent="1" source="uYLrp8LAjMFdkNRyyOgL-109" target="uYLrp8LAjMFdkNRyyOgL-119">
          <mxGeometry relative="1" as="geometry" />
        </mxCell>
        <mxCell id="uYLrp8LAjMFdkNRyyOgL-109" value="&lt;font style=&quot;font-size: 16px;&quot;&gt;CAN Message Frame.Data &lt;br style=&quot;font-size: 16px;&quot;&gt;= 0&lt;/font&gt;" style="whiteSpace=wrap;html=1;strokeWidth=2;fontSize=16;fontStyle=1" vertex="1" parent="1">
          <mxGeometry x="1570" y="909" width="220" height="60" as="geometry" />
        </mxCell>
        <mxCell id="uYLrp8LAjMFdkNRyyOgL-170" style="edgeStyle=orthogonalEdgeStyle;rounded=0;orthogonalLoop=1;jettySize=auto;html=1;fontSize=16;fontStyle=1" edge="1" parent="1" source="uYLrp8LAjMFdkNRyyOgL-114">
          <mxGeometry relative="1" as="geometry">
            <mxPoint x="520" y="1100" as="targetPoint" />
          </mxGeometry>
        </mxCell>
        <mxCell id="uYLrp8LAjMFdkNRyyOgL-114" value="&lt;font style=&quot;font-size: 16px;&quot;&gt;CAN_Send()&lt;/font&gt;" style="shape=process;whiteSpace=wrap;html=1;backgroundOutline=1;strokeWidth=2;fontSize=16;fontStyle=1" vertex="1" parent="1">
          <mxGeometry x="410" y="1000" width="220" height="60" as="geometry" />
        </mxCell>
        <mxCell id="uYLrp8LAjMFdkNRyyOgL-168" style="edgeStyle=orthogonalEdgeStyle;rounded=0;orthogonalLoop=1;jettySize=auto;html=1;fontSize=16;fontStyle=1" edge="1" parent="1" source="uYLrp8LAjMFdkNRyyOgL-116">
          <mxGeometry relative="1" as="geometry">
            <mxPoint x="820" y="1100" as="targetPoint" />
          </mxGeometry>
        </mxCell>
        <mxCell id="uYLrp8LAjMFdkNRyyOgL-116" value="&lt;font style=&quot;font-size: 16px;&quot;&gt;CAN_Send()&lt;/font&gt;" style="shape=process;whiteSpace=wrap;html=1;backgroundOutline=1;strokeWidth=2;fontSize=16;fontStyle=1" vertex="1" parent="1">
          <mxGeometry x="710" y="1000" width="220" height="60" as="geometry" />
        </mxCell>
        <mxCell id="uYLrp8LAjMFdkNRyyOgL-126" value="" style="edgeStyle=orthogonalEdgeStyle;rounded=0;orthogonalLoop=1;jettySize=auto;html=1;fontSize=16;fontStyle=1" edge="1" parent="1" source="uYLrp8LAjMFdkNRyyOgL-117" target="uYLrp8LAjMFdkNRyyOgL-125">
          <mxGeometry relative="1" as="geometry" />
        </mxCell>
        <mxCell id="uYLrp8LAjMFdkNRyyOgL-117" value="&lt;font style=&quot;font-size: 16px;&quot;&gt;CAN_Send()&lt;/font&gt;" style="shape=process;whiteSpace=wrap;html=1;backgroundOutline=1;strokeWidth=2;fontSize=16;fontStyle=1" vertex="1" parent="1">
          <mxGeometry x="1010" y="1189" width="220" height="60" as="geometry" />
        </mxCell>
        <mxCell id="uYLrp8LAjMFdkNRyyOgL-172" value="" style="edgeStyle=orthogonalEdgeStyle;rounded=0;orthogonalLoop=1;jettySize=auto;html=1;fontSize=16;fontStyle=1" edge="1" parent="1" source="uYLrp8LAjMFdkNRyyOgL-119" target="uYLrp8LAjMFdkNRyyOgL-171">
          <mxGeometry relative="1" as="geometry" />
        </mxCell>
        <mxCell id="uYLrp8LAjMFdkNRyyOgL-119" value="&lt;font style=&quot;font-size: 16px;&quot;&gt;CAN_Send()&lt;/font&gt;" style="shape=process;whiteSpace=wrap;html=1;backgroundOutline=1;strokeWidth=2;fontSize=16;fontStyle=1" vertex="1" parent="1">
          <mxGeometry x="1570" y="999" width="220" height="60" as="geometry" />
        </mxCell>
        <mxCell id="uYLrp8LAjMFdkNRyyOgL-158" style="edgeStyle=orthogonalEdgeStyle;rounded=0;orthogonalLoop=1;jettySize=auto;html=1;fontSize=16;fontStyle=1" edge="1" parent="1" source="uYLrp8LAjMFdkNRyyOgL-125">
          <mxGeometry relative="1" as="geometry">
            <mxPoint x="1120" y="1370" as="targetPoint" />
          </mxGeometry>
        </mxCell>
        <mxCell id="uYLrp8LAjMFdkNRyyOgL-125" value="&lt;font style=&quot;font-size: 16px;&quot;&gt;PositionEnd_Send()&lt;/font&gt;" style="shape=process;whiteSpace=wrap;html=1;backgroundOutline=1;strokeWidth=2;fontSize=16;fontStyle=1" vertex="1" parent="1">
          <mxGeometry x="1010" y="1279" width="220" height="60" as="geometry" />
        </mxCell>
        <mxCell id="uYLrp8LAjMFdkNRyyOgL-134" value="" style="edgeStyle=orthogonalEdgeStyle;rounded=0;orthogonalLoop=1;jettySize=auto;html=1;fontSize=16;fontStyle=1" edge="1" parent="1" source="uYLrp8LAjMFdkNRyyOgL-130" target="uYLrp8LAjMFdkNRyyOgL-133">
          <mxGeometry relative="1" as="geometry" />
        </mxCell>
        <mxCell id="uYLrp8LAjMFdkNRyyOgL-152" style="edgeStyle=orthogonalEdgeStyle;rounded=0;orthogonalLoop=1;jettySize=auto;html=1;fontSize=16;fontStyle=1" edge="1" parent="1" source="uYLrp8LAjMFdkNRyyOgL-130">
          <mxGeometry relative="1" as="geometry">
            <mxPoint x="1254" y="1370" as="targetPoint" />
          </mxGeometry>
        </mxCell>
        <mxCell id="uYLrp8LAjMFdkNRyyOgL-130" value="&lt;span style=&quot;font-size: 16px;&quot;&gt;Flag_Pos==0&lt;/span&gt;" style="rhombus;whiteSpace=wrap;html=1;strokeWidth=2;fontSize=16;fontStyle=1" vertex="1" parent="1">
          <mxGeometry x="1010" y="809" width="220" height="80" as="geometry" />
        </mxCell>
        <mxCell id="uYLrp8LAjMFdkNRyyOgL-135" value="" style="edgeStyle=orthogonalEdgeStyle;rounded=0;orthogonalLoop=1;jettySize=auto;html=1;fontSize=16;fontStyle=1" edge="1" parent="1" source="uYLrp8LAjMFdkNRyyOgL-133" target="uYLrp8LAjMFdkNRyyOgL-102">
          <mxGeometry relative="1" as="geometry" />
        </mxCell>
        <mxCell id="uYLrp8LAjMFdkNRyyOgL-133" value="&lt;font style=&quot;font-size: 16px;&quot;&gt;Flag_Pos=1&lt;/font&gt;" style="whiteSpace=wrap;html=1;strokeWidth=2;fontSize=16;fontStyle=1" vertex="1" parent="1">
          <mxGeometry x="1011" y="909" width="220" height="60" as="geometry" />
        </mxCell>
        <mxCell id="uYLrp8LAjMFdkNRyyOgL-136" value="&lt;span style=&quot;font-size: 16px;&quot;&gt;YES&lt;/span&gt;" style="text;html=1;strokeColor=none;fillColor=none;align=center;verticalAlign=middle;whiteSpace=wrap;rounded=0;fontSize=16;fontStyle=1" vertex="1" parent="1">
          <mxGeometry x="1001.5" y="859" width="40" height="30" as="geometry" />
        </mxCell>
        <mxCell id="uYLrp8LAjMFdkNRyyOgL-137" value="&lt;span style=&quot;font-size: 16px;&quot;&gt;NO&lt;/span&gt;" style="text;html=1;strokeColor=none;fillColor=none;align=center;verticalAlign=middle;whiteSpace=wrap;rounded=0;fontSize=16;fontStyle=1" vertex="1" parent="1">
          <mxGeometry x="1201.5" y="809" width="40" height="30" as="geometry" />
        </mxCell>
        <mxCell id="uYLrp8LAjMFdkNRyyOgL-138" value="" style="edgeStyle=orthogonalEdgeStyle;rounded=0;orthogonalLoop=1;jettySize=auto;html=1;fontSize=16;fontStyle=1" edge="1" parent="1" source="uYLrp8LAjMFdkNRyyOgL-139" target="uYLrp8LAjMFdkNRyyOgL-141">
          <mxGeometry relative="1" as="geometry" />
        </mxCell>
        <mxCell id="uYLrp8LAjMFdkNRyyOgL-139" value="&lt;font style=&quot;font-size: 16px;&quot;&gt;Mod_Position()&lt;/font&gt;" style="shape=process;whiteSpace=wrap;html=1;backgroundOutline=1;strokeWidth=2;fontSize=16;fontStyle=1" vertex="1" parent="1">
          <mxGeometry x="1292.5" y="999" width="217" height="60" as="geometry" />
        </mxCell>
        <mxCell id="uYLrp8LAjMFdkNRyyOgL-140" value="" style="edgeStyle=orthogonalEdgeStyle;rounded=0;orthogonalLoop=1;jettySize=auto;html=1;fontSize=16;fontStyle=1" edge="1" parent="1" source="uYLrp8LAjMFdkNRyyOgL-141" target="uYLrp8LAjMFdkNRyyOgL-143">
          <mxGeometry relative="1" as="geometry" />
        </mxCell>
        <mxCell id="uYLrp8LAjMFdkNRyyOgL-141" value="&lt;font style=&quot;font-size: 16px;&quot;&gt;CAN Message Frame.Data &lt;br style=&quot;font-size: 16px;&quot;&gt;= Motor.data.value32&lt;/font&gt;" style="whiteSpace=wrap;html=1;strokeWidth=2;fontSize=16;fontStyle=1" vertex="1" parent="1">
          <mxGeometry x="1290.5" y="1099" width="220" height="60" as="geometry" />
        </mxCell>
        <mxCell id="uYLrp8LAjMFdkNRyyOgL-142" value="" style="edgeStyle=orthogonalEdgeStyle;rounded=0;orthogonalLoop=1;jettySize=auto;html=1;fontSize=16;fontStyle=1" edge="1" parent="1" source="uYLrp8LAjMFdkNRyyOgL-143" target="uYLrp8LAjMFdkNRyyOgL-144">
          <mxGeometry relative="1" as="geometry" />
        </mxCell>
        <mxCell id="uYLrp8LAjMFdkNRyyOgL-143" value="&lt;font style=&quot;font-size: 16px;&quot;&gt;CAN_Send()&lt;/font&gt;" style="shape=process;whiteSpace=wrap;html=1;backgroundOutline=1;strokeWidth=2;fontSize=16;fontStyle=1" vertex="1" parent="1">
          <mxGeometry x="1289.5" y="1189" width="220" height="60" as="geometry" />
        </mxCell>
        <mxCell id="uYLrp8LAjMFdkNRyyOgL-160" style="edgeStyle=orthogonalEdgeStyle;rounded=0;orthogonalLoop=1;jettySize=auto;html=1;fontSize=16;fontStyle=1" edge="1" parent="1" source="uYLrp8LAjMFdkNRyyOgL-144">
          <mxGeometry relative="1" as="geometry">
            <mxPoint x="1399.5" y="1370" as="targetPoint" />
          </mxGeometry>
        </mxCell>
        <mxCell id="uYLrp8LAjMFdkNRyyOgL-144" value="&lt;font style=&quot;font-size: 16px;&quot;&gt;PositionEnd_Send()&lt;/font&gt;" style="shape=process;whiteSpace=wrap;html=1;backgroundOutline=1;strokeWidth=2;fontSize=16;fontStyle=1" vertex="1" parent="1">
          <mxGeometry x="1289.5" y="1279" width="220" height="60" as="geometry" />
        </mxCell>
        <mxCell id="uYLrp8LAjMFdkNRyyOgL-145" value="" style="edgeStyle=orthogonalEdgeStyle;rounded=0;orthogonalLoop=1;jettySize=auto;html=1;fontSize=16;fontStyle=1" edge="1" parent="1" source="uYLrp8LAjMFdkNRyyOgL-146" target="uYLrp8LAjMFdkNRyyOgL-148">
          <mxGeometry relative="1" as="geometry" />
        </mxCell>
        <mxCell id="uYLrp8LAjMFdkNRyyOgL-153" style="edgeStyle=orthogonalEdgeStyle;rounded=0;orthogonalLoop=1;jettySize=auto;html=1;fontSize=16;fontStyle=1" edge="1" parent="1" source="uYLrp8LAjMFdkNRyyOgL-146">
          <mxGeometry relative="1" as="geometry">
            <mxPoint x="1543" y="1368" as="targetPoint" />
          </mxGeometry>
        </mxCell>
        <mxCell id="uYLrp8LAjMFdkNRyyOgL-146" value="&lt;span style=&quot;font-size: 16px;&quot;&gt;Flag_Pos==0&lt;/span&gt;" style="rhombus;whiteSpace=wrap;html=1;strokeWidth=2;fontSize=16;fontStyle=1" vertex="1" parent="1">
          <mxGeometry x="1289.5" y="809" width="220" height="80" as="geometry" />
        </mxCell>
        <mxCell id="uYLrp8LAjMFdkNRyyOgL-147" value="" style="edgeStyle=orthogonalEdgeStyle;rounded=0;orthogonalLoop=1;jettySize=auto;html=1;fontSize=16;fontStyle=1" edge="1" parent="1" source="uYLrp8LAjMFdkNRyyOgL-148" target="uYLrp8LAjMFdkNRyyOgL-139">
          <mxGeometry relative="1" as="geometry" />
        </mxCell>
        <mxCell id="uYLrp8LAjMFdkNRyyOgL-148" value="&lt;font style=&quot;font-size: 16px;&quot;&gt;Flag_Pos=1&lt;/font&gt;" style="whiteSpace=wrap;html=1;strokeWidth=2;fontSize=16;fontStyle=1" vertex="1" parent="1">
          <mxGeometry x="1290.5" y="909" width="220" height="60" as="geometry" />
        </mxCell>
        <mxCell id="uYLrp8LAjMFdkNRyyOgL-149" value="&lt;span style=&quot;font-size: 16px;&quot;&gt;YES&lt;/span&gt;" style="text;html=1;strokeColor=none;fillColor=none;align=center;verticalAlign=middle;whiteSpace=wrap;rounded=0;fontSize=16;fontStyle=1" vertex="1" parent="1">
          <mxGeometry x="1281" y="859" width="40" height="30" as="geometry" />
        </mxCell>
        <mxCell id="uYLrp8LAjMFdkNRyyOgL-150" value="&lt;span style=&quot;font-size: 16px;&quot;&gt;NO&lt;/span&gt;" style="text;html=1;strokeColor=none;fillColor=none;align=center;verticalAlign=middle;whiteSpace=wrap;rounded=0;fontSize=16;fontStyle=1" vertex="1" parent="1">
          <mxGeometry x="1481" y="809" width="40" height="30" as="geometry" />
        </mxCell>
        <mxCell id="uYLrp8LAjMFdkNRyyOgL-155" value="" style="endArrow=none;html=1;rounded=0;fontSize=16;fontStyle=1" edge="1" parent="1">
          <mxGeometry width="50" height="50" relative="1" as="geometry">
            <mxPoint x="1514" y="1368" as="sourcePoint" />
            <mxPoint x="1574" y="1368" as="targetPoint" />
          </mxGeometry>
        </mxCell>
        <mxCell id="uYLrp8LAjMFdkNRyyOgL-156" value="" style="endArrow=none;html=1;rounded=0;fontSize=16;fontStyle=1" edge="1" parent="1">
          <mxGeometry width="50" height="50" relative="1" as="geometry">
            <mxPoint x="1221" y="1370" as="sourcePoint" />
            <mxPoint x="1281" y="1370" as="targetPoint" />
          </mxGeometry>
        </mxCell>
        <mxCell id="uYLrp8LAjMFdkNRyyOgL-157" value="" style="endArrow=none;html=1;rounded=0;fontSize=16;fontStyle=1" edge="1" parent="1">
          <mxGeometry width="50" height="50" relative="1" as="geometry">
            <mxPoint x="1088" y="1370" as="sourcePoint" />
            <mxPoint x="1148" y="1370" as="targetPoint" />
          </mxGeometry>
        </mxCell>
        <mxCell id="uYLrp8LAjMFdkNRyyOgL-159" value="" style="endArrow=none;html=1;rounded=0;fontSize=16;fontStyle=1" edge="1" parent="1">
          <mxGeometry width="50" height="50" relative="1" as="geometry">
            <mxPoint x="1371" y="1370" as="sourcePoint" />
            <mxPoint x="1431" y="1370" as="targetPoint" />
          </mxGeometry>
        </mxCell>
        <mxCell id="uYLrp8LAjMFdkNRyyOgL-164" value="" style="endArrow=none;html=1;rounded=0;fontSize=16;fontStyle=1" edge="1" parent="1">
          <mxGeometry width="50" height="50" relative="1" as="geometry">
            <mxPoint x="1820" y="1099" as="sourcePoint" />
            <mxPoint x="1880" y="1099" as="targetPoint" />
          </mxGeometry>
        </mxCell>
        <mxCell id="uYLrp8LAjMFdkNRyyOgL-167" value="" style="endArrow=none;html=1;rounded=0;fontSize=16;fontStyle=1" edge="1" parent="1">
          <mxGeometry width="50" height="50" relative="1" as="geometry">
            <mxPoint x="790" y="1099" as="sourcePoint" />
            <mxPoint x="850" y="1099" as="targetPoint" />
          </mxGeometry>
        </mxCell>
        <mxCell id="uYLrp8LAjMFdkNRyyOgL-169" value="" style="endArrow=none;html=1;rounded=0;fontSize=16;fontStyle=1" edge="1" parent="1">
          <mxGeometry width="50" height="50" relative="1" as="geometry">
            <mxPoint x="490" y="1098.29" as="sourcePoint" />
            <mxPoint x="550" y="1098.29" as="targetPoint" />
          </mxGeometry>
        </mxCell>
        <mxCell id="uYLrp8LAjMFdkNRyyOgL-173" style="edgeStyle=orthogonalEdgeStyle;rounded=0;orthogonalLoop=1;jettySize=auto;html=1;fontSize=16;fontStyle=1" edge="1" parent="1">
          <mxGeometry relative="1" as="geometry">
            <mxPoint x="1680" y="1189" as="targetPoint" />
            <mxPoint x="1680" y="1148" as="sourcePoint" />
          </mxGeometry>
        </mxCell>
        <mxCell id="uYLrp8LAjMFdkNRyyOgL-174" value="" style="endArrow=none;html=1;rounded=0;fontSize=16;fontStyle=1" edge="1" parent="1">
          <mxGeometry width="50" height="50" relative="1" as="geometry">
            <mxPoint x="1650" y="1188" as="sourcePoint" />
            <mxPoint x="1710" y="1188" as="targetPoint" />
          </mxGeometry>
        </mxCell>
        <mxCell id="uYLrp8LAjMFdkNRyyOgL-171" value="&lt;font style=&quot;font-size: 16px;&quot;&gt;Flag_Pos=0&lt;/font&gt;" style="whiteSpace=wrap;html=1;strokeWidth=2;fontSize=16;fontStyle=1" vertex="1" parent="1">
          <mxGeometry x="1570" y="1090" width="220" height="60" as="geometry" />
        </mxCell>
      </root>
    </mxGraphModel>
  </diagram>
</mxfile>
